<svg xmlns="http://www.w3.org/2000/svg" version="1.1" xmlns:xlink="http://www.w3.org/1999/xlink" xmlns:svgjs="http://svgjs.com/svgjs" width="1280" height="1024" preserveAspectRatio="none" viewBox="0 0 1280 1024"><g mask="url(&quot;#SvgjsMask1032&quot;)" fill="none"><rect width="1280" height="1024" x="0" y="0" fill="rgba(32, 27, 44, 1)"></rect><path d="M0,510.424C101.103,515.133,201.434,499.445,292.226,454.713C390.642,406.225,482.06,340.124,537.644,245.534C596.487,145.398,627.922,27.057,611.057,-87.857C594.214,-202.617,525.301,-301.895,445.016,-385.608C367.532,-466.401,271.622,-528.076,162.981,-555.064C57.075,-581.373,-51.648,-563.091,-157.147,-535.195C-265.131,-506.642,-379.646,-476.759,-452.698,-392.265C-525.721,-307.805,-550.242,-190.916,-551.335,-79.27C-552.345,23.892,-507.888,118.805,-458.59,209.431C-412.174,294.76,-356.448,374.984,-275.241,428.284C-193.542,481.907,-97.619,505.877,0,510.424" fill="#1a1623"></path><path d="M1280 1312.101C1357.941 1320.848 1432.536 1405.476 1502.912 1370.857 1571.079 1337.324 1563.511 1235.933 1583.71 1162.7 1600.762 1100.879 1622.988 1039.439 1611.739 976.303 1600.692 914.302 1564.238 861.006 1521.683 814.581 1480.022 769.131 1426.886 740.006 1371.092 713.77 1306.048 683.185 1240.705 636.575 1169.944 649.184 1097.703 662.057 1034.403 716.108 998.5799999999999 780.148 965.058 840.075 985.985 912.813 984.078 981.453 982.4159999999999 1041.275 970.88 1099.991 988.104 1157.304 1007.1030000000001 1220.524 1028.758 1293.2640000000001 1087.078 1324.192 1145.179 1355.004 1214.645 1304.767 1280 1312.101" fill="#262035"></path></g><defs><mask id="SvgjsMask1032"><rect width="1280" height="1024" fill="#ffffff"></rect></mask></defs></svg>